<svg width="20" height="20" viewBox="0 0 20 20" fill="none" xmlns="http://www.w3.org/2000/svg"><path d="M4.738 0.969 C 4.695 0.986,4.615 1.032,4.560 1.071 C 4.460 1.143,1.920 4.501,1.819 4.695 C 1.770 4.790,1.765 5.339,1.767 10.891 C 1.768 17.660,1.753 17.213,1.997 17.712 C 2.313 18.360,2.956 18.876,3.621 19.017 C 3.965 19.090,16.035 19.090,16.379 19.017 C 17.044 18.876,17.687 18.360,18.003 17.712 C 18.247 17.213,18.232 17.660,18.233 10.891 C 18.235 5.339,18.230 4.790,18.181 4.695 C 18.151 4.638,17.543 3.813,16.830 2.863 C 15.875 1.589,15.497 1.110,15.394 1.042 L 15.255 0.950 10.036 0.944 C 6.809 0.940,4.787 0.949,4.738 0.969 M15.311 3.325 L 16.004 4.250 13.002 4.259 C 11.351 4.263,8.649 4.263,6.998 4.259 L 3.996 4.250 4.689 3.325 L 5.383 2.400 10.000 2.400 L 14.617 2.400 15.311 3.325 M16.750 11.317 L 16.750 16.883 16.680 17.033 C 16.590 17.225,16.392 17.423,16.200 17.513 L 16.050 17.583 10.000 17.583 L 3.950 17.583 3.800 17.513 C 3.608 17.423,3.410 17.225,3.320 17.033 L 3.250 16.883 3.241 11.351 C 3.236 8.308,3.239 5.799,3.248 5.775 C 3.261 5.741,4.585 5.735,10.007 5.742 L 16.750 5.750 16.750 11.317 M6.350 7.663 C 6.055 7.800,5.933 8.028,5.933 8.445 C 5.933 9.391,6.352 10.399,7.049 11.130 C 7.837 11.956,8.869 12.400,10.000 12.400 C 11.987 12.400,13.674 10.976,14.017 9.010 C 14.083 8.633,14.082 8.200,14.015 8.041 C 13.771 7.457,12.896 7.453,12.655 8.033 C 12.629 8.098,12.596 8.285,12.583 8.450 C 12.524 9.198,12.282 9.726,11.779 10.202 C 11.252 10.700,10.726 10.907,9.983 10.906 C 9.235 10.905,8.641 10.650,8.132 10.112 C 7.671 9.625,7.473 9.166,7.417 8.450 C 7.404 8.285,7.371 8.098,7.345 8.033 C 7.234 7.767,6.974 7.601,6.667 7.601 C 6.558 7.601,6.429 7.627,6.350 7.663 " stroke="none" fill-rule="evenodd" fill="black"></path></svg>