<svg width="20" height="20" viewBox="0 0 20 20" fill="none" xmlns="http://www.w3.org/2000/svg"><path d="M9.583 0.448 C 9.337 0.496,9.147 0.558,8.962 0.650 C 8.491 0.883,2.423 4.382,2.265 4.512 C 1.907 4.805,1.610 5.278,1.476 5.767 C 1.421 5.969,1.417 6.250,1.417 9.883 C 1.417 13.511,1.421 13.798,1.476 14.000 C 1.619 14.527,1.949 15.031,2.338 15.318 C 2.594 15.506,8.921 19.123,9.141 19.206 C 9.688 19.414,10.312 19.414,10.859 19.206 C 11.079 19.123,17.406 15.506,17.662 15.318 C 18.051 15.031,18.381 14.527,18.524 14.000 C 18.579 13.798,18.583 13.511,18.583 9.883 C 18.583 6.250,18.579 5.969,18.524 5.767 C 18.390 5.278,18.093 4.805,17.735 4.512 C 17.542 4.354,11.348 0.792,10.967 0.619 C 10.552 0.432,10.006 0.364,9.583 0.448 M10.487 1.705 C 10.746 1.831,16.700 5.240,16.699 5.263 C 16.699 5.274,16.074 5.648,15.312 6.095 L 13.925 6.906 10.562 4.982 C 8.713 3.923,7.200 3.048,7.200 3.036 C 7.200 2.995,9.556 1.668,9.687 1.635 C 9.904 1.581,10.302 1.616,10.487 1.705 M9.427 5.587 C 11.273 6.643,12.794 7.517,12.806 7.529 C 12.819 7.540,12.192 7.923,11.415 8.378 L 10.000 9.206 6.651 7.245 C 4.809 6.166,3.305 5.272,3.309 5.258 C 3.315 5.238,6.025 3.671,6.060 3.668 C 6.065 3.667,7.580 4.531,9.427 5.587 M6.007 8.246 L 9.383 10.225 9.392 14.113 C 9.396 16.251,9.395 18.000,9.388 18.000 C 9.381 18.000,7.957 17.190,6.224 16.200 C 4.018 14.939,3.033 14.358,2.938 14.263 C 2.863 14.189,2.760 14.043,2.709 13.939 L 2.617 13.750 2.608 10.008 C 2.603 7.950,2.606 6.267,2.615 6.267 C 2.623 6.267,4.150 7.157,6.007 8.246 M17.392 10.008 L 17.383 13.750 17.291 13.939 C 17.240 14.043,17.137 14.189,17.062 14.263 C 16.967 14.358,15.982 14.939,13.776 16.200 C 12.043 17.190,10.619 18.000,10.612 18.000 C 10.605 18.000,10.604 16.251,10.608 14.113 L 10.617 10.225 13.983 8.248 C 15.835 7.161,17.362 6.270,17.376 6.269 C 17.390 6.268,17.397 7.950,17.392 10.008 " stroke="none" fill-rule="evenodd" fill="black"></path></svg>